<svg width="197" height="173" viewBox="0 0 197 173" fill="none" xmlns="http://www.w3.org/2000/svg">
<path d="M11.2735 173H185.727C187.706 173 189.65 172.481 191.363 171.495C193.077 170.509 194.5 169.091 195.49 167.384C196.479 165.676 197 163.739 197 161.768C197 159.796 196.479 157.859 195.49 156.151L108.263 5.61622C107.273 3.90867 105.85 2.49071 104.137 1.50486C102.423 0.519007 100.479 0 98.5 0C96.5211 0 94.5771 0.519007 92.8634 1.50486C91.1496 2.49071 89.7265 3.90867 88.7371 5.61622L1.51034 156.151C0.52089 157.859 -8.16316e-06 159.796 0 161.768C8.16335e-06 163.739 0.520921 165.676 1.51038 167.384C2.49984 169.091 3.92299 170.509 5.63677 171.495C7.35055 172.481 9.29458 173 11.2735 173ZM98.5002 152.141C96.2983 152.141 94.146 151.491 92.3152 150.272C90.4845 149.053 89.0576 147.321 88.215 145.294C87.3724 143.267 87.1519 141.036 87.5815 138.885C88.0111 136.733 89.0714 134.757 90.6283 133.205C92.1852 131.654 94.1689 130.598 96.3284 130.17C98.488 129.742 100.726 129.961 102.761 130.801C104.795 131.64 106.533 133.062 107.757 134.886C108.98 136.711 109.633 138.855 109.633 141.049C109.633 142.506 109.345 143.948 108.785 145.294C108.226 146.64 107.406 147.863 106.372 148.893C105.338 149.923 104.111 150.74 102.76 151.297C101.41 151.854 99.9621 152.141 98.5002 152.141ZM98.5002 44.9535C100.126 44.9535 101.735 45.2812 103.231 45.9171C104.726 46.5529 106.077 47.4837 107.202 48.6534C108.327 49.823 109.202 51.2074 109.776 52.7231C110.35 54.2388 110.61 55.8546 110.541 57.4731L108.335 109.01C108.226 111.537 107.143 113.924 105.31 115.674C103.478 117.423 101.038 118.4 98.5001 118.4C95.9621 118.4 93.5222 117.423 91.6897 115.674C89.8572 113.924 88.7738 111.537 88.6656 109.01L86.4594 57.4731C86.3901 55.8546 86.6502 54.2388 87.2241 52.7231C87.798 51.2074 88.6737 49.823 89.7986 48.6533C90.9235 47.4837 92.2743 46.5529 93.7697 45.9171C95.2652 45.2812 96.8743 44.9535 98.5002 44.9535Z" fill="#DF0E0F"/>
</svg>
