<?xml version="1.0" encoding="UTF-8" standalone="no"?> <svg id="Layer_1" data-name="Layer 1" xmlns="http://www.w3.org/2000/svg" viewBox="0 0 512 512"><defs><style>.cls-1{fill:#141f38;}</style></defs><title>document-denied-glyph</title><path class="cls-1" d="M422.4,358.4a76.68,76.68,0,0,0-62.53,121.23l107-107A76.3,76.3,0,0,0,422.4,358.4Z"/><path class="cls-1" d="M320,435.2A102.4,102.4,0,0,1,422.4,332.8V153.6L268.94,0H76.8a64,64,0,0,0-64,64V448a64,64,0,0,0,64,64h278A102.05,102.05,0,0,1,320,435.2ZM256,25.6,396.8,166.4H320a64,64,0,0,1-64-64ZM128,243.2H230.4a12.8,12.8,0,0,1,0,25.6H128a12.8,12.8,0,1,1,0-25.6Zm0,51.2H307.2a12.8,12.8,0,0,1,0,25.6H128a12.8,12.8,0,1,1,0-25.6Zm178.82,76.8H128a12.8,12.8,0,0,1,0-25.6H306.82a12.8,12.8,0,1,1,0,25.6Z"/><path class="cls-1" d="M484.93,390.77l-107,107a76.68,76.68,0,0,0,107-107Z"/></svg>